<svg version="1.1" id="Layer_1" xmlns="http://www.w3.org/2000/svg" xmlns:xlink="http://www.w3.org/1999/xlink" x="0px" y="0px"
	        width="100%" viewBox="0 0 3040 169" enable-background="new 0 0 3040 169" xml:space="preserve">
    <path fill="#FFFFFF" opacity="1.000000" stroke="none" 
      d="
    M2859.000000,170.000000 
      C1906.000122,170.000000 953.500366,170.000000 1.000383,170.000000 
      C1.000256,113.666847 1.000256,57.333694 1.000128,1.000406 
      C1014.333008,1.000271 2027.666016,1.000271 3040.999268,1.000135 
      C3040.999512,57.332962 3040.999512,113.665924 3040.999756,169.999451 
      C2980.500000,170.000000 2920.000000,170.000000 2859.000000,170.000000 
    M122.657715,33.917519 
      C127.305954,40.207813 133.654327,41.271252 140.719681,39.511379 
      C145.087296,38.423477 147.403229,35.484047 147.286957,30.795330 
      C147.176178,26.328438 144.843704,23.833900 140.671936,22.638245 
      C132.578827,20.318707 127.036232,22.586918 123.112991,29.910715 
      C122.995758,30.129572 122.353951,30.067419 122.057083,29.352701 
      C120.546623,22.631359 117.673515,19.847494 112.427773,20.022493 
      C107.454811,20.188393 104.464600,23.291523 103.346153,29.529161 
      C103.141968,30.667906 103.056671,31.842731 103.055885,33.000992 
      C103.041824,53.790215 103.037369,74.579475 103.077217,95.368637 
      C103.080048,96.846825 103.324417,98.351501 103.657951,99.797386 
      C105.002289,105.625221 108.090500,108.228157 113.209816,107.968636 
      C118.092018,107.721123 121.334000,104.556923 121.998863,98.840233 
      C122.438995,95.055840 122.490395,91.209526 122.475960,87.391838 
      C122.409370,69.782188 122.258614,52.172855 122.657715,33.917519 
    M638.496216,100.266205 
      C644.139038,97.754341 647.607422,93.173912 650.129150,87.790482 
      C655.549805,76.218399 656.624878,64.055405 653.845093,51.734318 
      C650.181824,35.497551 640.620667,24.088774 624.041077,20.310343 
      C607.464172,16.532509 592.459961,20.105171 581.201355,33.665302 
      C565.568298,52.494099 568.497009,85.242088 586.971313,101.248734 
      C595.837524,108.930649 606.066406,111.773529 617.585938,108.985229 
      C621.860901,107.950478 624.776428,105.178146 624.775269,100.584709 
      C624.774109,96.115700 622.133850,93.160149 617.921326,91.796227 
      C616.371704,91.294502 614.673340,90.983574 613.052063,91.018051 
      C605.807251,91.172066 600.690918,87.695625 597.033997,81.782394 
      C592.111938,73.823570 591.662964,65.068695 593.340881,56.222061 
      C595.564026,44.500660 603.363342,37.460178 613.378235,37.499420 
      C623.457031,37.538914 630.575745,44.415604 633.252747,56.346996 
      C635.698120,67.245644 632.824707,77.072456 627.625183,86.481880 
      C625.753418,89.869164 624.547363,93.268280 627.198792,96.706146 
      C629.859192,100.155754 633.426575,101.557449 638.496216,100.266205 
    M220.888168,19.133884 
      C218.452118,19.654177 215.977081,20.037361 213.586487,20.717459 
      C200.095581,24.555473 192.736847,35.312107 194.026871,49.234024 
      C194.891022,58.559925 201.028427,63.576424 208.916855,66.899567 
      C215.023605,69.472153 221.371948,71.471344 227.478073,74.045265 
      C231.598190,75.782028 233.637985,79.178879 232.637253,83.720085 
      C231.595322,88.448120 228.104187,90.725784 223.548615,90.740433 
      C220.279068,90.750946 216.982178,89.896156 213.741882,89.215965 
      C210.498199,88.535072 207.347870,87.365021 204.088181,86.815262 
      C198.941711,85.947296 194.810226,88.050034 193.460464,92.084496 
      C191.902969,96.739807 194.019348,100.154953 197.624908,102.853683 
      C198.809586,103.740402 200.153595,104.455322 201.505814,105.070648 
      C212.306198,109.985451 223.419205,110.382858 234.538834,106.591316 
      C246.365067,102.558830 253.107071,93.454308 253.586853,81.760902 
      C254.058090,70.276047 249.016296,62.672489 236.875763,57.201965 
      C231.743820,54.889519 226.332031,53.206085 221.123962,51.051777 
      C217.482758,49.545601 213.806885,47.549477 214.952347,42.736107 
      C216.066589,38.053970 220.005554,36.860500 224.283234,37.061569 
      C226.744537,37.177258 229.188293,37.837578 231.620529,38.345665 
      C233.568710,38.752632 235.463028,39.482685 237.424652,39.746399 
      C241.483307,40.292038 245.200531,39.476871 247.195435,35.489006 
      C249.302277,31.277386 247.698639,27.599270 244.414688,24.830227 
      C242.438232,23.163685 239.989136,21.576664 237.523422,21.071321 
      C232.362274,20.013546 227.049622,19.695009 220.888168,19.133884 
    M42.637966,71.075653 
      C48.961735,71.198616 55.330109,70.899269 61.596954,71.561188 
      C68.098045,72.247841 71.204071,75.950157 70.891159,81.157379 
      C70.580688,86.324127 66.964600,89.693985 60.705990,90.048943 
      C55.056976,90.369324 49.370647,90.034966 43.722187,90.360687 
      C40.110397,90.568970 36.221481,90.782135 33.060673,92.273209 
      C31.025534,93.233253 28.957521,96.522537 28.972681,98.753815 
      C28.987774,100.975677 31.164654,103.761673 33.176594,105.220612 
      C35.013718,106.552795 37.890228,106.836365 40.323959,106.890137 
      C48.150352,107.063057 56.006794,107.267799 63.805801,106.758369 
      C68.369080,106.460312 73.131073,105.481277 77.302811,103.660812 
      C87.007881,99.425720 91.274254,91.483391 91.174911,80.929794 
      C91.080399,70.888367 86.467712,64.247177 77.056229,60.857365 
      C76.291527,60.581936 75.593018,60.122684 76.106453,60.385880 
      C78.776230,56.194550 82.701080,52.332855 83.856445,47.769905 
      C86.830162,36.025635 80.364906,25.365206 68.458244,23.507568 
      C58.209587,21.908607 47.578007,22.203232 37.146114,22.556831 
      C31.203466,22.758266 28.567640,26.107155 28.642315,30.483315 
      C28.715801,34.790012 31.503189,37.571918 37.478783,38.114742 
      C43.930595,38.700829 50.449013,38.511032 56.929169,38.840733 
      C62.527416,39.125565 65.899994,42.348175 65.795479,46.973110 
      C65.693230,51.497292 62.108757,54.756393 56.648754,54.941395 
      C51.488815,55.116230 46.306950,54.796978 41.158539,55.099815 
      C38.232254,55.271942 35.033012,55.682289 32.560463,57.065006 
      C30.753075,58.075752 28.887751,60.877380 28.945415,62.824535 
      C29.010031,65.006439 30.720306,68.004303 32.603558,69.057663 
      C35.194252,70.506721 38.619385,70.463936 42.637966,71.075653 
    M673.660583,89.830437 
      C669.042908,90.982613 666.394836,93.683876 666.717407,98.697372 
      C667.027710,103.520920 670.098022,105.622375 674.427612,106.452293 
      C675.564331,106.670189 676.710083,107.002129 677.852173,107.004463 
      C685.511902,107.020126 693.182068,107.201958 700.829712,106.877945 
      C719.154663,106.101547 733.080383,95.146049 737.350098,77.687706 
      C738.711365,72.121712 739.092773,66.135399 738.839966,60.389034 
      C738.066589,42.811649 727.293579,27.337385 711.791016,24.355167 
      C700.031311,22.092972 687.683716,22.846128 675.592407,22.403288 
      C674.190552,22.351946 672.241638,22.804626 671.437378,23.767735 
      C669.555725,26.020954 666.975342,28.740944 667.004883,31.244492 
      C667.034363,33.746639 669.370422,37.078091 671.655090,38.465530 
      C674.129333,39.968109 677.698242,39.871281 680.815430,40.070679 
      C687.779114,40.516109 694.899719,39.977348 701.680237,41.278767 
      C705.904114,42.089497 710.984253,44.590641 713.309875,47.966164 
      C719.828491,57.427277 719.614197,68.169861 714.857483,78.385704 
      C710.705078,87.303749 702.301392,88.914589 693.386658,89.007462 
      C687.075500,89.073204 680.766907,89.382401 673.660583,89.830437 
    M450.988434,99.305168 
      C450.473236,93.299622 448.588440,90.926300 442.759491,89.875008 
      C439.514648,89.289772 436.155487,89.310066 432.843903,89.129814 
      C428.536713,88.895386 424.078278,89.371880 419.943939,88.418846 
      C407.814606,85.622818 402.283966,75.884323 403.737946,60.939976 
      C404.910309,48.889946 411.993530,42.071083 424.206268,41.438831 
      C429.852448,41.146530 435.540833,41.429565 441.159027,40.904972 
      C446.560883,40.400574 449.596313,37.029881 449.892548,32.275982 
      C450.198517,27.366476 447.781219,23.605816 442.196625,22.981802 
      C434.986847,22.176184 427.574280,21.930553 420.363068,22.626129 
      C398.118103,24.771818 384.469910,38.862591 382.393066,61.023041 
      C380.672974,79.376572 388.863037,95.318634 404.047791,103.126976 
      C416.686646,109.626167 430.141876,108.560448 443.566681,107.155693 
      C447.527039,106.741295 450.175201,104.223434 450.988434,99.305168 
    M539.580383,88.417503 
      C527.602661,84.482956 522.571655,76.354813 523.586731,62.578335 
      C524.622437,48.522999 531.958252,41.615101 546.047729,41.368217 
      C551.201843,41.277905 556.391296,41.422962 561.497253,40.854717 
      C566.813293,40.263073 569.777405,36.724201 569.904724,31.935078 
      C570.030151,27.214268 567.684998,23.590340 562.352539,23.022816 
      C554.974121,22.237537 547.399475,21.941933 540.030945,22.671019 
      C517.893982,24.861391 504.253906,39.177792 502.366394,61.347420 
      C500.510437,83.146591 512.279175,101.570015 532.730042,106.208488 
      C542.098267,108.333298 552.201721,107.785645 561.942627,107.489746 
      C568.015808,107.305260 570.930115,103.617424 570.997925,98.796692 
      C571.069641,93.700783 568.201721,90.760490 561.779114,89.647713 
      C559.502625,89.253288 557.154785,89.220787 554.835388,89.133568 
      C550.019226,88.952454 545.200317,88.845238 539.580383,88.417503 
    M311.852783,73.390358 
      C311.847900,78.339005 314.065674,81.737427 318.973633,82.876404 
      C323.476501,83.921379 327.210236,81.534866 329.503387,76.441406 
      C330.114777,75.083366 330.578644,73.653290 331.035980,72.232368 
      C334.210876,62.367706 337.366180,52.496731 340.888275,41.502396 
      C341.838562,44.184727 342.474548,45.806381 342.991302,47.465172 
      C348.376343,64.750946 353.668060,82.066269 359.150360,99.321060 
      C361.312744,106.126892 366.359406,109.263023 371.839600,107.703789 
      C377.311798,106.146828 379.996826,100.991516 377.745087,94.396362 
      C370.287231,72.553123 362.739349,50.732861 354.694641,29.101395 
      C351.261261,19.869343 339.667267,16.804649 332.905151,22.985565 
      C330.084076,25.564165 327.977936,29.287153 326.475006,32.878292 
      C321.796265,44.057671 317.523804,55.408432 313.193176,66.730743 
      C312.491211,68.566010 312.295502,70.594902 311.852783,73.390358 
    M167.548965,21.988373 
      C153.985901,21.999546 150.526428,24.319382 150.365402,34.930347 
      C150.059799,55.068256 150.071106,75.214165 150.234024,95.354454 
      C150.301834,103.736008 153.932373,108.012077 159.911591,107.985435 
      C165.810028,107.959152 168.956696,104.073975 169.653656,95.861282 
      C169.794083,94.206589 169.765839,92.535194 169.767059,90.871460 
      C169.775726,79.052330 169.771835,67.233192 169.771912,55.414062 
      C169.771942,50.463596 169.771912,45.513126 169.771912,40.612213 
      C174.822617,40.125347 179.448105,39.937141 183.975113,39.168716 
      C188.276001,38.438671 190.669098,35.463242 190.622910,31.081367 
      C190.577057,26.732159 188.182343,23.634741 183.898071,23.017500 
      C178.830856,22.287457 173.656860,22.298540 167.548965,21.988373 
    M297.771912,45.601982 
      C297.771912,43.856041 297.771912,42.110096 297.771912,40.745419 
      C303.441559,40.066261 308.427704,39.828335 313.235168,38.774860 
      C316.823578,37.988514 319.202606,34.777344 318.456757,31.304998 
      C317.845062,28.457375 315.661194,25.507038 313.347137,23.612375 
      C311.659515,22.230644 308.641327,22.220526 306.189117,22.082876 
      C302.039948,21.849968 297.869232,21.982801 293.707642,21.991697 
      C281.397583,22.018007 278.317505,25.014940 278.259460,37.269676 
      C278.171936,55.747532 278.133575,74.225845 278.166534,92.703804 
      C278.171265,95.342812 278.443359,98.037712 279.029388,100.606888 
      C280.061798,105.132774 282.868073,107.895058 287.757324,107.980309 
      C292.424866,108.061699 295.884521,105.369858 296.905090,100.441994 
      C297.507263,97.534538 297.718994,94.502609 297.734802,91.524681 
      C297.814423,76.542831 297.771698,61.560337 297.771912,45.601982 
    M488.971252,40.445507 
      C489.424347,39.957619 489.900391,39.488914 490.327087,38.978928 
      C495.721558,32.531181 496.147217,27.076960 491.570038,23.171881 
      C487.107605,19.364716 482.565094,20.431362 476.677490,26.950289 
      C468.420532,36.092636 460.260010,45.322422 452.095184,54.547489 
      C447.271118,59.997990 447.335938,64.859131 452.353912,70.390549 
      C461.414978,80.378723 470.524689,90.322838 479.640045,100.261551 
      C481.325470,102.099220 482.999420,103.986519 484.912537,105.568024 
      C488.861206,108.832199 493.092438,108.807312 496.664886,105.628769 
      C500.294739,102.399132 500.831726,98.492508 498.408691,94.407753 
      C496.981262,92.001411 495.150116,89.790146 493.258667,87.711189 
      C485.224548,78.880638 477.099976,70.132378 467.711914,59.947468 
      C474.743683,53.514629 481.609436,47.233673 488.971252,40.445507 
    M788.169617,40.053841 
      C789.637024,39.828983 791.124268,39.691132 792.568176,39.363026 
      C796.963501,38.364292 799.725647,35.720116 799.649353,31.076633 
      C799.574097,26.498327 796.878967,23.790535 792.446777,22.845251 
      C790.833130,22.501078 789.190247,22.090590 787.557190,22.075010 
      C779.258484,21.995853 770.954956,21.900438 762.661072,22.115629 
      C760.084534,22.182482 756.943970,22.485744 755.122192,23.976707 
      C752.963440,25.743494 750.816956,28.893446 750.777039,31.476549 
      C750.740906,33.817120 753.085815,36.837906 755.229248,38.378246 
      C757.170898,39.773560 760.248901,39.950096 762.841064,40.010418 
      C770.970215,40.199577 779.106506,40.080322 788.169617,40.053841 
    M799.064270,102.226280 
      C801.717529,94.329063 798.192383,89.469963 788.968384,89.118759 
      C780.173828,88.783905 771.355591,88.940399 762.551147,89.087143 
      C760.279663,89.124992 757.920837,89.666176 755.779358,90.456444 
      C752.328552,91.729889 750.618713,94.401619 750.648987,98.180069 
      C750.679749,102.018333 752.688965,104.452782 756.068542,105.723892 
      C757.903931,106.414230 759.942078,106.864021 761.895935,106.890106 
      C770.867432,107.009857 779.863220,107.300270 788.803345,106.756546 
      C792.158142,106.552513 795.385559,104.253601 799.064270,102.226280 
    M768.547729,54.996727 
      C764.762573,55.313007 760.913635,55.304611 757.209106,56.031597 
      C753.019897,56.853683 750.633972,59.655334 750.661255,64.157761 
      C750.687256,68.444801 753.024780,70.945656 756.951965,72.001411 
      C759.010986,72.554947 761.180908,72.922760 763.307495,72.957329 
      C770.444031,73.073334 777.584778,73.074066 784.721313,72.957649 
      C786.847778,72.922958 789.016296,72.547867 791.076477,71.996216 
      C795.005188,70.944267 797.381714,68.417465 797.410156,64.164917 
      C797.440063,59.696678 794.994080,57.040894 790.838562,55.997356 
      C788.609192,55.437504 786.273926,55.119240 783.975708,55.050552 
      C779.165588,54.906788 774.348328,55.000523 768.547729,54.996727 
    M251.308914,30.638079 
      C251.298782,35.440987 253.608719,38.718437 258.280548,39.576752 
      C263.688293,40.570271 269.307343,41.141006 273.582977,36.462765 
      C274.500580,35.458771 274.946106,33.808399 275.136169,32.392296 
      C275.881470,26.840746 273.201843,23.456841 267.355743,22.273918 
      C259.174103,20.618420 253.376236,23.377853 251.308914,30.638079 
    z"/>
    <path fill="#FF7043" opacity="1.000000" stroke="none" 
      d="
    M638.140747,100.428078 
      C633.426575,101.557449 629.859192,100.155754 627.198792,96.706146 
      C624.547363,93.268280 625.753418,89.869164 627.625183,86.481880 
      C632.824707,77.072456 635.698120,67.245644 633.252747,56.346996 
      C630.575745,44.415604 623.457031,37.538914 613.378235,37.499420 
      C603.363342,37.460178 595.564026,44.500660 593.340881,56.222061 
      C591.662964,65.068695 592.111938,73.823570 597.033997,81.782394 
      C600.690918,87.695625 605.807251,91.172066 613.052063,91.018051 
      C614.673340,90.983574 616.371704,91.294502 617.921326,91.796227 
      C622.133850,93.160149 624.774109,96.115700 624.775269,100.584709 
      C624.776428,105.178146 621.860901,107.950478 617.585938,108.985229 
      C606.066406,111.773529 595.837524,108.930649 586.971313,101.248734 
      C568.497009,85.242088 565.568298,52.494099 581.201355,33.665302 
      C592.459961,20.105171 607.464172,16.532509 624.041077,20.310343 
      C640.620667,24.088774 650.181824,35.497551 653.845093,51.734318 
      C656.624878,64.055405 655.549805,76.218399 650.129150,87.790482 
      C647.607422,93.173912 644.139038,97.754341 638.140747,100.428078 
    z"/>
    <path fill="#FF7043" opacity="1.000000" stroke="none" 
      d="
    M221.343674,19.103384 
      C227.049622,19.695009 232.362274,20.013546 237.523422,21.071321 
      C239.989136,21.576664 242.438232,23.163685 244.414688,24.830227 
      C247.698639,27.599270 249.302277,31.277386 247.195435,35.489006 
      C245.200531,39.476871 241.483307,40.292038 237.424652,39.746399 
      C235.463028,39.482685 233.568710,38.752632 231.620529,38.345665 
      C229.188293,37.837578 226.744537,37.177258 224.283234,37.061569 
      C220.005554,36.860500 216.066589,38.053970 214.952347,42.736107 
      C213.806885,47.549477 217.482758,49.545601 221.123962,51.051777 
      C226.332031,53.206085 231.743820,54.889519 236.875763,57.201965 
      C249.016296,62.672489 254.058090,70.276047 253.586853,81.760902 
      C253.107071,93.454308 246.365067,102.558830 234.538834,106.591316 
      C223.419205,110.382858 212.306198,109.985451 201.505814,105.070648 
      C200.153595,104.455322 198.809586,103.740402 197.624908,102.853683 
      C194.019348,100.154953 191.902969,96.739807 193.460464,92.084496 
      C194.810226,88.050034 198.941711,85.947296 204.088181,86.815262 
      C207.347870,87.365021 210.498199,88.535072 213.741882,89.215965 
      C216.982178,89.896156 220.279068,90.750946 223.548615,90.740433 
      C228.104187,90.725784 231.595322,88.448120 232.637253,83.720085 
      C233.637985,79.178879 231.598190,75.782028 227.478073,74.045265 
      C221.371948,71.471344 215.023605,69.472153 208.916855,66.899567 
      C201.028427,63.576424 194.891022,58.559925 194.026871,49.234024 
      C192.736847,35.312107 200.095581,24.555473 213.586487,20.717459 
      C215.977081,20.037361 218.452118,19.654177 221.343674,19.103384 
    z"/>
    <path fill="#FF7043" opacity="1.000000" stroke="none" 
      d="
    M42.162491,71.067978 
      C38.619385,70.463936 35.194252,70.506721 32.603558,69.057663 
      C30.720306,68.004303 29.010031,65.006439 28.945415,62.824535 
      C28.887751,60.877380 30.753075,58.075752 32.560463,57.065006 
      C35.033012,55.682289 38.232254,55.271942 41.158539,55.099815 
      C46.306950,54.796978 51.488815,55.116230 56.648754,54.941395 
      C62.108757,54.756393 65.693230,51.497292 65.795479,46.973110 
      C65.899994,42.348175 62.527416,39.125565 56.929169,38.840733 
      C50.449013,38.511032 43.930595,38.700829 37.478783,38.114742 
      C31.503189,37.571918 28.715801,34.790012 28.642315,30.483315 
      C28.567640,26.107155 31.203466,22.758266 37.146114,22.556831 
      C47.578007,22.203232 58.209587,21.908607 68.458244,23.507568 
      C80.364906,25.365206 86.830162,36.025635 83.856445,47.769905 
      C82.701080,52.332855 78.776230,56.194550 76.106453,60.385880 
      C75.593018,60.122684 76.291527,60.581936 77.056229,60.857365 
      C86.467712,64.247177 91.080399,70.888367 91.174911,80.929794 
      C91.274254,91.483391 87.007881,99.425720 77.302811,103.660812 
      C73.131073,105.481277 68.369080,106.460312 63.805801,106.758369 
      C56.006794,107.267799 48.150352,107.063057 40.323959,106.890137 
      C37.890228,106.836365 35.013718,106.552795 33.176594,105.220612 
      C31.164654,103.761673 28.987774,100.975677 28.972681,98.753815 
      C28.957521,96.522537 31.025534,93.233253 33.060673,92.273209 
      C36.221481,90.782135 40.110397,90.568970 43.722187,90.360687 
      C49.370647,90.034966 55.056976,90.369324 60.705990,90.048943 
      C66.964600,89.693985 70.580688,86.324127 70.891159,81.157379 
      C71.204071,75.950157 68.098045,72.247841 61.596954,71.561188 
      C55.330109,70.899269 48.961735,71.198616 42.162491,71.067978 
    z"/>
    <path fill="#FF7043" opacity="1.000000" stroke="none" 
      d="
    M674.058838,89.706680 
      C680.766907,89.382401 687.075500,89.073204 693.386658,89.007462 
      C702.301392,88.914589 710.705078,87.303749 714.857483,78.385704 
      C719.614197,68.169861 719.828491,57.427277 713.309875,47.966164 
      C710.984253,44.590641 705.904114,42.089497 701.680237,41.278767 
      C694.899719,39.977348 687.779114,40.516109 680.815430,40.070679 
      C677.698242,39.871281 674.129333,39.968109 671.655090,38.465530 
      C669.370422,37.078091 667.034363,33.746639 667.004883,31.244492 
      C666.975342,28.740944 669.555725,26.020954 671.437378,23.767735 
      C672.241638,22.804626 674.190552,22.351946 675.592407,22.403288 
      C687.683716,22.846128 700.031311,22.092972 711.791016,24.355167 
      C727.293579,27.337385 738.066589,42.811649 738.839966,60.389034 
      C739.092773,66.135399 738.711365,72.121712 737.350098,77.687706 
      C733.080383,95.146049 719.154663,106.101547 700.829712,106.877945 
      C693.182068,107.201958 685.511902,107.020126 677.852173,107.004463 
      C676.710083,107.002129 675.564331,106.670189 674.427612,106.452293 
      C670.098022,105.622375 667.027710,103.520920 666.717407,98.697372 
      C666.394836,93.683876 669.042908,90.982613 674.058838,89.706680 
    z"/>
    <path fill="#FF7043" opacity="1.000000" stroke="none" 
      d="
    M450.966553,99.704102 
      C450.175201,104.223434 447.527039,106.741295 443.566681,107.155693 
      C430.141876,108.560448 416.686646,109.626167 404.047791,103.126976 
      C388.863037,95.318634 380.672974,79.376572 382.393066,61.023041 
      C384.469910,38.862591 398.118103,24.771818 420.363068,22.626129 
      C427.574280,21.930553 434.986847,22.176184 442.196625,22.981802 
      C447.781219,23.605816 450.198517,27.366476 449.892548,32.275982 
      C449.596313,37.029881 446.560883,40.400574 441.159027,40.904972 
      C435.540833,41.429565 429.852448,41.146530 424.206268,41.438831 
      C411.993530,42.071083 404.910309,48.889946 403.737946,60.939976 
      C402.283966,75.884323 407.814606,85.622818 419.943939,88.418846 
      C424.078278,89.371880 428.536713,88.895386 432.843903,89.129814 
      C436.155487,89.310066 439.514648,89.289772 442.759491,89.875008 
      C448.588440,90.926300 450.473236,93.299622 450.966553,99.704102 
    z"/>
    <path fill="#FF7043" opacity="1.000000" stroke="none" 
      d="
    M539.981445,88.562576 
      C545.200317,88.845238 550.019226,88.952454 554.835388,89.133568 
      C557.154785,89.220787 559.502625,89.253288 561.779114,89.647713 
      C568.201721,90.760490 571.069641,93.700783 570.997925,98.796692 
      C570.930115,103.617424 568.015808,107.305260 561.942627,107.489746 
      C552.201721,107.785645 542.098267,108.333298 532.730042,106.208488 
      C512.279175,101.570015 500.510437,83.146591 502.366394,61.347420 
      C504.253906,39.177792 517.893982,24.861391 540.030945,22.671019 
      C547.399475,21.941933 554.974121,22.237537 562.352539,23.022816 
      C567.684998,23.590340 570.030151,27.214268 569.904724,31.935078 
      C569.777405,36.724201 566.813293,40.263073 561.497253,40.854717 
      C556.391296,41.422962 551.201843,41.277905 546.047729,41.368217 
      C531.958252,41.615101 524.622437,48.522999 523.586731,62.578335 
      C522.571655,76.354813 527.602661,84.482956 539.981445,88.562576 
    z"/>
    <path fill="#FF7043" opacity="1.000000" stroke="none" 
      d="
    M311.859314,72.962326 
      C312.295502,70.594902 312.491211,68.566010 313.193176,66.730743 
      C317.523804,55.408432 321.796265,44.057671 326.475006,32.878292 
      C327.977936,29.287153 330.084076,25.564165 332.905151,22.985565 
      C339.667267,16.804649 351.261261,19.869343 354.694641,29.101395 
      C362.739349,50.732861 370.287231,72.553123 377.745087,94.396362 
      C379.996826,100.991516 377.311798,106.146828 371.839600,107.703789 
      C366.359406,109.263023 361.312744,106.126892 359.150360,99.321060 
      C353.668060,82.066269 348.376343,64.750946 342.991302,47.465172 
      C342.474548,45.806381 341.838562,44.184727 340.888275,41.502396 
      C337.366180,52.496731 334.210876,62.367706 331.035980,72.232368 
      C330.578644,73.653290 330.114777,75.083366 329.503387,76.441406 
      C327.210236,81.534866 323.476501,83.921379 318.973633,82.876404 
      C314.065674,81.737427 311.847900,78.339005 311.859314,72.962326 
    z"/>
    <path fill="#FF7043" opacity="1.000000" stroke="none" 
      d="
    M168.039062,21.988369 
      C173.656860,22.298540 178.830856,22.287457 183.898071,23.017500 
      C188.182343,23.634741 190.577057,26.732159 190.622910,31.081367 
      C190.669098,35.463242 188.276001,38.438671 183.975113,39.168716 
      C179.448105,39.937141 174.822617,40.125347 169.771912,40.612213 
      C169.771912,45.513126 169.771942,50.463596 169.771912,55.414062 
      C169.771835,67.233192 169.775726,79.052330 169.767059,90.871460 
      C169.765839,92.535194 169.794083,94.206589 169.653656,95.861282 
      C168.956696,104.073975 165.810028,107.959152 159.911591,107.985435 
      C153.932373,108.012077 150.301834,103.736008 150.234024,95.354454 
      C150.071106,75.214165 150.059799,55.068256 150.365402,34.930347 
      C150.526428,24.319382 153.985901,21.999546 168.039062,21.988369 
    z"/>
    <path fill="#FF7043" opacity="1.000000" stroke="none" 
      d="
    M297.771912,46.090027 
      C297.771698,61.560337 297.814423,76.542831 297.734802,91.524681 
      C297.718994,94.502609 297.507263,97.534538 296.905090,100.441994 
      C295.884521,105.369858 292.424866,108.061699 287.757324,107.980309 
      C282.868073,107.895058 280.061798,105.132774 279.029388,100.606888 
      C278.443359,98.037712 278.171265,95.342812 278.166534,92.703804 
      C278.133575,74.225845 278.171936,55.747532 278.259460,37.269676 
      C278.317505,25.014940 281.397583,22.018007 293.707642,21.991697 
      C297.869232,21.982801 302.039948,21.849968 306.189117,22.082876 
      C308.641327,22.220526 311.659515,22.230644 313.347137,23.612375 
      C315.661194,25.507038 317.845062,28.457375 318.456757,31.304998 
      C319.202606,34.777344 316.823578,37.988514 313.235168,38.774860 
      C308.427704,39.828335 303.441559,40.066261 297.771912,40.745419 
      C297.771912,42.110096 297.771912,43.856041 297.771912,46.090027 
    z"/>
    <path fill="#FF7043" opacity="1.000000" stroke="none" 
      d="
    M488.723206,40.699112 
      C481.609436,47.233673 474.743683,53.514629 467.711914,59.947468 
      C477.099976,70.132378 485.224548,78.880638 493.258667,87.711189 
      C495.150116,89.790146 496.981262,92.001411 498.408691,94.407753 
      C500.831726,98.492508 500.294739,102.399132 496.664886,105.628769 
      C493.092438,108.807312 488.861206,108.832199 484.912537,105.568024 
      C482.999420,103.986519 481.325470,102.099220 479.640045,100.261551 
      C470.524689,90.322838 461.414978,80.378723 452.353912,70.390549 
      C447.335938,64.859131 447.271118,59.997990 452.095184,54.547489 
      C460.260010,45.322422 468.420532,36.092636 476.677490,26.950289 
      C482.565094,20.431362 487.107605,19.364716 491.570038,23.171881 
      C496.147217,27.076960 495.721558,32.531181 490.327087,38.978928 
      C489.900391,39.488914 489.424347,39.957619 488.723206,40.699112 
    z"/>
    <path fill="#FF7043" opacity="1.000000" stroke="none" 
      d="
    M122.138031,34.563412 
      C122.258614,52.172855 122.409370,69.782188 122.475960,87.391838 
      C122.490395,91.209526 122.438995,95.055840 121.998863,98.840233 
      C121.334000,104.556923 118.092018,107.721123 113.209816,107.968636 
      C108.090500,108.228157 105.002289,105.625221 103.657951,99.797386 
      C103.324417,98.351501 103.080048,96.846825 103.077217,95.368637 
      C103.037369,74.579475 103.041824,53.790215 103.055885,33.000992 
      C103.056671,31.842731 103.141968,30.667906 103.346153,29.529161 
      C104.464600,23.291523 107.454811,20.188393 112.427773,20.022493 
      C117.673515,19.847494 120.546623,22.631359 122.002472,30.184589 
      C122.011246,32.198788 122.074638,33.381100 122.138031,34.563412 
    z"/>
    <path fill="#FF7043" opacity="1.000000" stroke="none" 
      d="
    M787.704834,40.067184 
      C779.106506,40.080322 770.970215,40.199577 762.841064,40.010418 
      C760.248901,39.950096 757.170898,39.773560 755.229248,38.378246 
      C753.085815,36.837906 750.740906,33.817120 750.777039,31.476549 
      C750.816956,28.893446 752.963440,25.743494 755.122192,23.976707 
      C756.943970,22.485744 760.084534,22.182482 762.661072,22.115629 
      C770.954956,21.900438 779.258484,21.995853 787.557190,22.075010 
      C789.190247,22.090590 790.833130,22.501078 792.446777,22.845251 
      C796.878967,23.790535 799.574097,26.498327 799.649353,31.076633 
      C799.725647,35.720116 796.963501,38.364292 792.568176,39.363026 
      C791.124268,39.691132 789.637024,39.828983 787.704834,40.067184 
    z"/>
    <path fill="#FF7043" opacity="1.000000" stroke="none" 
      d="
    M798.867676,102.568024 
      C795.385559,104.253601 792.158142,106.552513 788.803345,106.756546 
      C779.863220,107.300270 770.867432,107.009857 761.895935,106.890106 
      C759.942078,106.864021 757.903931,106.414230 756.068542,105.723892 
      C752.688965,104.452782 750.679749,102.018333 750.648987,98.180069 
      C750.618713,94.401619 752.328552,91.729889 755.779358,90.456444 
      C757.920837,89.666176 760.279663,89.124992 762.551147,89.087143 
      C771.355591,88.940399 780.173828,88.783905 788.968384,89.118759 
      C798.192383,89.469963 801.717529,94.329063 798.867676,102.568024 
    z"/>
    <path fill="#FF7043" opacity="1.000000" stroke="none" 
      d="
    M769.040894,54.996727 
      C774.348328,55.000523 779.165588,54.906788 783.975708,55.050552 
      C786.273926,55.119240 788.609192,55.437504 790.838562,55.997356 
      C794.994080,57.040894 797.440063,59.696678 797.410156,64.164917 
      C797.381714,68.417465 795.005188,70.944267 791.076477,71.996216 
      C789.016296,72.547867 786.847778,72.922958 784.721313,72.957649 
      C777.584778,73.074066 770.444031,73.073334 763.307495,72.957329 
      C761.180908,72.922760 759.010986,72.554947 756.951965,72.001411 
      C753.024780,70.945656 750.687256,68.444801 750.661255,64.157761 
      C750.633972,59.655334 753.019897,56.853683 757.209106,56.031597 
      C760.913635,55.304611 764.762573,55.313007 769.040894,54.996727 
    z"/>
    <path fill="#FF7043" opacity="1.000000" stroke="none" 
      d="
    M122.397873,34.240463 
      C122.074638,33.381100 122.011246,32.198788 121.952286,30.576382 
      C122.353951,30.067419 122.995758,30.129572 123.112991,29.910715 
      C127.036232,22.586918 132.578827,20.318707 140.671936,22.638245 
      C144.843704,23.833900 147.176178,26.328438 147.286957,30.795330 
      C147.403229,35.484047 145.087296,38.423477 140.719681,39.511379 
      C133.654327,41.271252 127.305954,40.207813 122.397873,34.240463 
    z"/>
    <path fill="#FF7043" opacity="1.000000" stroke="none" 
      d="
    M251.353149,30.253613 
      C253.376236,23.377853 259.174103,20.618420 267.355743,22.273918 
      C273.201843,23.456841 275.881470,26.840746 275.136169,32.392296 
      C274.946106,33.808399 274.500580,35.458771 273.582977,36.462765 
      C269.307343,41.141006 263.688293,40.570271 258.280548,39.576752 
      C253.608719,38.718437 251.298782,35.440987 251.353149,30.253613 
    z"/>
    </svg>